<?xml version="1.0" encoding="UTF-8" standalone="no"?>
<!-- Uploaded to: SVG Repo, www.svgrepo.com, Generator: SVG Repo Mixer Tools -->
<svg width="800px" height="800px" viewBox="-4 0 64 64" version="1.1" xmlns="http://www.w3.org/2000/svg" xmlns:xlink="http://www.w3.org/1999/xlink" xmlns:sketch="http://www.bohemiancoding.com/sketch/ns">
    
    <title>Shield-check</title>
    <desc>Created with Sketch.</desc>
    <defs>

</defs>
    <g id="Page-1" stroke="none" stroke-width="1" fill="none" fill-rule="evenodd" sketch:type="MSPage">
        <g id="Shield-check" sketch:type="MSLayerGroup" transform="translate(1.000000, 1.000000)" stroke="#007aff" stroke-width="2">
            <path d="M54,12.1 C54,46 32.4,62 27,62 C21.6,62 0,46 0,12.1 C0,1.2 16.8,0 27,0 C37.2,0 54,1.1 54,12.1 L54,12.1 Z" id="Shape" sketch:type="MSShapeGroup">

</path>
            <path d="M27,58 C23.2,57.2 4.1,43.4 4.1,12.1 C4.1,8.3 9.4,4 27,4 C44.6,4 49.9,8.3 49.9,12.1 C49.9,43.4 30.8,57.2 27,58 L27,58 Z" id="Shape" sketch:type="MSShapeGroup">

</path>
            <path d="M38,24.1 L35.2,21.3 C34.8,20.9 34.2,20.9 33.8,21.3 L26,29.1 L22.5,25.6 C22.1,25.2 21.5,25.2 21.1,25.6 L18.3,28.4 C17.9,28.8 17.9,29.4 18.3,29.8 L25.4,36.9 C25.8,37.3 26.4,37.3 26.8,36.9 L38.1,25.6 C38.4,25.1 38.4,24.5 38,24.1 L38,24.1 Z" id="Shape" sketch:type="MSShapeGroup">

</path>
        </g>
    </g>
</svg>
